<?xml version="1.0" encoding="utf-8"?>
<!-- Generator: Adobe Illustrator 19.0.0, SVG Export Plug-In . SVG Version: 6.00 Build 0)  -->
<svg id="Layer_1" version="1.0" viewBox="0 0 356.6 350.9"  x="0px" xml:space="preserve"
	 xmlns="http://www.w3.org/2000/svg" y="0px" style="enable-background:new 0 0 356.6 350.9;">
<style type="text/css">
	.st0{fill:#424A60;}
	.st1{fill:#1A237E;}
	.st2{fill:#3A51B5;}
	.st3{fill:#5C6BC0;}
	.st4{fill:#8C9EFF;}
	.st5{fill:#C5CAE9;}
	.st6{fill:#B3C2F4;}
	.st7{fill:#9FA8DA;}
	.st8{fill:#7986CB;}
</style>
<path class="st0" d="M272.9,61L272.9,61c-3.7-22.8-57.1-40.9-122.4-40.9S31.9,38.2,28.2,61l0,0h-0.2v2.6v58.7v2.6
	v2.6v56.2v2.6v2.6V250h0.2c3.7,22.8,57.1,40.9,122.4,40.9s118.6-18.1,122.4-40.9h0.2v-61.3v-2.6v-2.6v-56.2v-2.6v-2.6V63.6V61H272.9
	z" id="XMLID_11_"/>
<g id="XMLID_22_">
	<path class="st1" d="M150.5,229.6c-67.7,0-122.6-19.4-122.6-43.4V250h0.2c3.7,22.8,57.1,40.9,122.4,40.9
		s118.6-18.1,122.4-40.9h0.2v-63.8C273.1,210.1,218.2,229.6,150.5,229.6z" id="XMLID_10_"/>
	<path class="st1" d="M27.9,183.6v2.6c0-0.9,0.1-1.7,0.2-2.6H27.9z" id="XMLID_9_"/>
	<path class="st1" d="M272.9,183.6c0.1,0.8,0.2,1.7,0.2,2.6v-2.6H272.9z" id="XMLID_8_"/>
</g>
<g id="XMLID_18_">
	<path class="st2" d="M150.5,168.3c-67.7,0-122.6-19.4-122.6-43.4v63.8h0.2c3.7,22.8,57.1,40.9,122.4,40.9
		s118.6-18.1,122.4-40.9h0.2v-63.8C273.1,148.8,218.2,168.3,150.5,168.3z" id="XMLID_7_"/>
	<path class="st2" d="M27.9,122.3v2.6c0-0.9,0.1-1.7,0.2-2.6H27.9z" id="XMLID_6_"/>
	<path class="st2" d="M272.9,122.3c0.1,0.8,0.2,1.7,0.2,2.6v-2.6H272.9z" id="XMLID_5_"/>
</g>
<ellipse class="st3" cx="150.5" cy="63.6" id="XMLID_4_" rx="122.6" ry="43.4"/>
<g id="XMLID_13_">
	<path class="st4" d="M150.5,107C82.8,107,27.9,87.5,27.9,63.6v63.8h0.2c3.7,22.8,57.1,40.9,122.4,40.9
		s118.6-18.1,122.4-40.9h0.2V63.6C273.1,87.5,218.2,107,150.5,107z" id="XMLID_3_"/>
	<path class="st4" d="M27.9,61v2.6c0-0.9,0.1-1.7,0.2-2.6H27.9z" id="XMLID_2_"/>
	<path class="st4" d="M272.9,61c0.1,0.8,0.2,1.7,0.2,2.6V61H272.9z" id="XMLID_1_"/>
</g>
<path class="st5" d="M286.4,179.3c26.9,0.8,48.3,22.1,47.8,47.5c-0.1,13.2-6.4,25.8-17.1,34.4v51.2
	c0,5.9-2.5,11.6-7,15.8c-4.5,4.2-10.5,6.6-16.8,6.5h-8.5c-12,0-22.1-8.4-23.6-19.6l-3.6-26.4c-1.5-11.1-11.6-19.5-23.5-19.6
	l-45.3-0.1c-12-0.1-22.2,8.4-23.7,19.6l-3.5,26.5c-1.5,11.2-11.6,19.6-23.6,19.6H129c-6.3,0-12.4-2.3-16.8-6.5
	c-4.5-4.2-7-9.9-7-15.8v-51.3c-10.7-9-16.8-21.7-16.8-35.2c0-18.8,12-35.7,30.4-43c18.4-7.3,39.6-3.6,54,9.5l0.3,0.3H250
	C259.6,183.7,272.8,178.8,286.4,179.3z" id="XMLID_21_"/>
<path class="st6" d="M235.7,181.9l9.4,10.7h-67.6l9.4-10.7c4-4.5,9.9-7.2,16.2-7.2h16.4
	C225.8,174.8,231.7,177.4,235.7,181.9z" id="XMLID_20_"/>
<path class="st7" d="M230.2,252.8h-37.7c-2.9,0-5.2-2.2-5.2-4.9c0-2.7,2.3-4.9,5.2-4.9h37.7c2.9,0,5.2,2.2,5.2,4.9
	C235.4,250.6,233.1,252.8,230.2,252.8z" id="XMLID_19_"/>
<g id="XMLID_24_">
	<path class="st8" d="M311.6,223.9c3.5,3.4,3.5,8.8-0.1,12.1c-3.6,3.3-9.3,3.3-12.8-0.1c-3.5-3.4-3.5-8.8,0.1-12.1
		C302.4,220.5,308.1,220.5,311.6,223.9z" id="XMLID_17_"/>
	<path class="st8" d="M291.9,208.9c0,4.7-4.1,8.5-9.1,8.5c-5,0-9.1-3.8-9.1-8.5c0-4.7,4.1-8.5,9.1-8.5
		C287.9,200.4,291.9,204.2,291.9,208.9z" id="XMLID_16_"/>
	<path class="st8" d="M289.3,242.5c3.5,3.4,3.5,8.8-0.1,12.1c-3.6,3.3-9.3,3.3-12.8-0.1c-3.5-3.4-3.5-8.8,0.1-12.1
		c1.7-1.6,4-2.5,6.4-2.5C285.3,240,287.6,240.9,289.3,242.5z" id="XMLID_15_"/>
	<path class="st8" d="M267.1,221.7c3.5,3.3,3.5,8.7,0,12.1c-3.5,3.3-9.3,3.3-12.8,0c-3.5-3.3-3.5-8.7,0-12.1
		c1.7-1.6,4-2.5,6.4-2.5C263.1,219.2,265.4,220.1,267.1,221.7z" id="XMLID_14_"/>
	<path class="st8" d="M139.9,199c15.8,0,28.7,12.1,28.7,26.9c0,14.9-12.8,26.9-28.7,26.9s-28.7-12.1-28.7-26.9
		C111.2,211.1,124,199,139.9,199z" id="XMLID_12_"/>
</g>
</svg>
