<?xml version="1.0" encoding="utf-8"?>
<!-- Generator: Adobe Illustrator 19.0.0, SVG Export Plug-In . SVG Version: 6.00 Build 0)  -->
<svg id="Layer_1" version="1.0" viewBox="0 0 181 176"  x="0px" xml:space="preserve"
	 xmlns="http://www.w3.org/2000/svg" y="0px" style="enable-background:new 0 0 181 176;">
<style type="text/css">
	.st0{fill:#D7DEED;}
	.st1{fill:#C7CFE2;}
	.st2{fill:#707487;}
	.st3{fill:#5B5D6E;}
	.st4{opacity:0.97;}
	.st5{fill:#AFB9D2;}
</style>
<rect class="st0" height="25" id="XMLID_8_" transform="matrix(-0.7071 -0.7071 0.7071 -0.7071 56.5866 222.3407)" width="9.9" x="69.4" y="86.9"/>
<path class="st1" d="M73.5,93.3c2.1,2.5,4.4,4.8,7,7l6.2-6.2l-7-7L73.5,93.3z" id="XMLID_7_"/>
<path class="st0" d="M117.2,4.8C88.7,4.8,65.5,28,65.5,56.6s23.2,51.7,51.7,51.7S169,85.1,169,56.6
	S145.8,4.8,117.2,4.8z M117.2,100.1c-24.1,0-43.6-19.5-43.6-43.6c0-24.1,19.5-43.6,43.6-43.6c24.1,0,43.6,19.5,43.6,43.6
	C160.8,80.6,141.3,100.1,117.2,100.1z" id="XMLID_32_"/>
<path class="st2" d="M18.4,161.2l-5.8-5.8c-2.1-2.1-2.1-5.6,0-7.7l46-46c2.1-2.1,5.6-2.1,7.7,0l5.8,5.8
	c2.1,2.1,2.1,5.6,0,7.7l-46,46C24,163.3,20.5,163.3,18.4,161.2z" id="XMLID_4_"/>
<path class="st3" d="M18.1,153.1l46-46c2.1-2.1,5.6-2.1,7.7,0l0.3,0.3c0,0,0,0,0,0l-5.8-5.8c-2.1-2.1-5.6-2.1-7.7,0
	l-46,46c-2.1,2.1-2.1,5.6,0,7.7l5.4,5.4C16,158.7,16,155.3,18.1,153.1z" id="XMLID_3_"/>
<path class="st1" d="M68.7,118.6l3.4-3.4c2.1-2.1,2.1-5.6,0-7.7l-5.8-5.8c-2.1-2.1-5.6-2.1-7.7,0l-3.4,3.4L68.7,118.6
	z" id="XMLID_2_"/>
<g class="st4" id="XMLID_27_">
	<path class="st5" d="M60.7,110.5l3.4-3.4c2.1-2.1,5.6-2.1,7.7,0l0.3,0.3c0,0,0,0,0,0l-5.8-5.8
		c-2.1-2.1-5.6-2.1-7.7,0l-3.4,3.4L60.7,110.5z" id="XMLID_1_"/>
</g>
<circle class="st2" cx="101.2" cy="40" id="XMLID_11_" r="6.9"/>
<circle class="st2" cx="133.9" cy="40" id="XMLID_10_" r="6.9"/>
<path class="st2" d="M96.7,78.8c-0.3,0-0.6-0.1-0.8-0.2c-0.8-0.5-1-1.5-0.5-2.2c4.6-7.5,12.6-11.9,21.4-11.9
	c8.7,0,16.6,4.4,21.2,11.7c0.5,0.8,0.3,1.8-0.5,2.2c-0.8,0.5-1.8,0.3-2.2-0.5c-4-6.4-11-10.2-18.5-10.2c-7.7,0-14.6,3.9-18.7,10.4
	C97.8,78.5,97.3,78.8,96.7,78.8z" id="XMLID_9_"/>
</svg>
